# xmcd
#
# Track frame offsets: 
#        150
#        21770
#        45947
#        67957
#        82719
#        110105
#        132614
#        150920
#        166288
#        192439
#        206454
#        229365
#        259559
#        283925
#
# Disc length: 3962 seconds
#
# Revision: 1
# Processed by: cddbd v1.5.2PL0 Copyright (c) Steve Scherf et al.
# Submitted via: ExactAudioCopyFreeDBPlugin 1.0
#
DISCID=b90f780e
DTITLE=Bob Dylan - Love and Theft -2001
DYEAR=2001
DGENRE=Blues
TTITLE0=Tweedle Dee and Tweedle Dum
TTITLE1=Mississippi
TTITLE2=Summer Days
TTITLE3=Bye and Bye
TTITLE4=Lonesome Day Blues
TTITLE5=Floater (Too Much To Ask)
TTITLE6=High Water (For Charley Patton)
TTITLE7=Moonlight
TTITLE8=Honest With Me
TTITLE9=Po' Boy
TTITLE10=Cry A While
TTITLE11=Sugar Baby
TTITLE12=I Was Young When I Left Home -1961
TTITLE13=The Times They Are A-changin' (Alternate Version) -1963
EXTD=
EXTT0=
EXTT1=
EXTT2=
EXTT3=
EXTT4=
EXTT5=
EXTT6=
EXTT7=
EXTT8=
EXTT9=
EXTT10=
EXTT11=
EXTT12=
EXTT13=
PLAYORDER=
